0
SECTION
2
HEADER
9
$INSUNITS
70
4
9
$ACADVER
1
AC1014
9
$HANDSEED
5
FFFF
0
ENDSEC
0
SECTION
2
TABLES
0
TABLE
2
VPORT
5
8
100
AcDbSymbolTable
0
ENDTAB
0
TABLE
2
LTYPE
5
5
100
AcDbSymbolTable
0
LTYPE
5
14
100
AcDbSymbolTableRecord
100
AcDbLinetypeTableRecord
2
BYBLOCK
70
0
0
LTYPE
5
15
100
AcDbSymbolTableRecord
100
AcDbLinetypeTableRecord
2
BYLAYER
70
0
0
LTYPE
5
16
100
AcDbSymbolTableRecord
100
AcDbLinetypeTableRecord
2
DASHED
70
0
3
Dashed __ __ __ __ __ __ __ __ __ __ __ __ __ _
72
65
73
2
40
0.75
49
0.5
74
0
49
-0.25
74
0
0
ENDTAB
0
TABLE
2
LAYER
5
2
100
AcDbSymbolTable
70
2
0
LAYER
5
50
100
AcDbSymbolTableRecord
100
AcDbLayerTableRecord
2
0
70
0
62
7
6
CONTINUOUS
0
ENDTAB
0
TABLE
2
STYLE
5
3
100
AcDbSymbolTable
70
1
0
STYLE
5
11
100
AcDbSymbolTableRecord
100
AcDbTextStyleTableRecord
2
STANDARD
70
0
0
ENDTAB
0
TABLE
2
VIEW
5
6
100
AcDbSymbolTable
70
0
0
ENDTAB
0
TABLE
2
UCS
5
7
100
AcDbSymbolTable
70
0
0
ENDTAB
0
TABLE
2
APPID
5
9
100
AcDbSymbolTable
70
2
0
APPID
5
12
100
AcDbSymbolTableRecord
100
AcDbRegAppTableRecord
2
ACAD
70
0
0
ENDTAB
0
TABLE
2
DIMSTYLE
5
A
100
AcDbSymbolTable
70
1
0
ENDTAB
0
TABLE
2
BLOCK_RECORD
5
1
100
AcDbSymbolTable
70
1
0
BLOCK_RECORD
5
1F
100
AcDbSymbolTableRecord
100
AcDbBlockTableRecord
2
*MODEL_SPACE
0
BLOCK_RECORD
5
1B
100
AcDbSymbolTableRecord
100
AcDbBlockTableRecord
2
*PAPER_SPACE
0
ENDTAB
0
ENDSEC
0
SECTION
2
BLOCKS
0
BLOCK
5
20
100
AcDbEntity
100
AcDbBlockBegin
2
*MODEL_SPACE
0
ENDBLK
5
21
100
AcDbEntity
100
AcDbBlockEnd
0
BLOCK
5
1C
100
AcDbEntity
100
AcDbBlockBegin
2
*PAPER_SPACE
0
ENDBLK
5
1D
100
AcDbEntity
100
AcDbBlockEnd
0
ENDSEC
0
SECTION
2
ENTITIES
0
POINT
5
100
100
AcDbEntity
8
0
100
AcDbPoint
10
0
20
0
30
0
0
CIRCLE
5
101
100
AcDbEntity
8
0
100
AcDbCircle
10
0
20
0
30
0
40
50
210
0
220
0
230
1
0
SPLINE
5
102
100
AcDbEntity
8
0
100
AcDbSpline
70
4
71
5
72
26
73
20
74
0
42
0.000000001
43
0.0000000001
44
0.0000000001
40
0
40
0
40
0
40
0
40
0
40
0
40
0.066666666666666666
40
0.13333333333333333
40
0.20000000000000001
40
0.26666666666666666
40
0.33333333333333331
40
0.39999999999999997
40
0.46666666666666662
40
0.53333333333333333
40
0.59999999999999998
40
0.66666666666666663
40
0.73333333333333328
40
0.79999999999999993
40
0.86666666666666659
40
0.93333333333333324
40
1
40
1
40
1
40
1
40
1
40
1
41
1
41
1
41
1
41
1
41
1
41
1
41
1
41
1
41
1
41
1
41
1
41
1
41
1
41
1
41
1
41
1
41
1
41
1
41
1
41
1
10
-50
20
0
30
0
10
-48.923000352968991
20
1.0356021045017612
30
0
10
-46.732901447768228
20
2.9776558136554105
30
0
10
-43.339452758234984
20
5.5032796586036001
30
0
10
-38.596691970340295
20
8.0902757275279864
30
0
10
-32.301079154212637
20
10.009829985470176
30
0
10
-25.644673482152939
20
10.636065655765039
30
0
10
-18.653468770499334
20
10.058152444590768
30
0
10
-11.386382685617566
20
8.4803270048952744
30
0
10
-3.9434300180895443
20
6.2507180939158484
30
0
10
3.553389086256777
20
3.7944320752669487
30
0
10
10.973812399889271
20
1.5656226916425744
30
0
10
18.195179651718657
20
-0.007821505496512551
30
0
10
25.115990452016487
20
-0.57147913035663855
30
0
10
31.675687869037237
20
0.086912899790131393
30
0
10
37.848195539505198
20
2.0597088674883866
30
0
10
42.471610019198593
20
4.7074019390176689
30
0
10
45.764057056404148
20
7.2887392416516388
30
0
10
47.881748612325701
20
9.2724395955979197
30
0
10
48.92127648699028
20
10.329990652631412
30
0
0
SPLINE
5
103
100
AcDbEntity
8
0
100
AcDbSpline
70
4
71
5
72
26
73
20
74
0
42
0.000000001
43
0.0000000001
44
0.0000000001
40
0
40
0
40
0
40
0
40
0
40
0
40
0.066666666666666666
40
0.13333333333333333
40
0.20000000000000001
40
0.26666666666666666
40
0.33333333333333331
40
0.39999999999999997
40
0.46666666666666662
40
0.53333333333333333
40
0.59999999999999998
40
0.66666666666666663
40
0.73333333333333328
40
0.79999999999999993
40
0.86666666666666659
40
0.93333333333333324
40
1
40
1
40
1
40
1
40
1
40
1
41
1
41
1
41
1
41
1
41
1
41
1
41
1
41
1
41
1
41
1
41
1
41
1
41
1
41
1
41
1
41
1
41
1
41
1
41
1
41
1
10
-50
20
-20
30
0
10
-48.923000352968991
20
-18.964397895493981
30
0
10
-46.732901447768228
20
-17.022344186333058
30
0
10
-43.339452758234984
20
-14.496720341377753
30
0
10
-38.596691970340295
20
-11.909724272450715
30
0
10
-32.301079154212637
20
-9.9901700145132217
30
0
10
-25.644673482152939
20
-9.3639343442274061
30
0
10
-18.653468770499334
20
-9.941847555411492
30
0
10
-11.386382685617566
20
-11.519672995114709
30
0
10
-3.9434300180895443
20
-13.749281906098192
30
0
10
3.553389086256777
20
-16.205567924746809
30
0
10
10.973812399889271
20
-18.434377308366884
30
0
10
18.195179651718657
20
-20.007821505498779
30
0
10
25.115990452016487
20
-20.571479130350756
30
0
10
31.675687869037237
20
-19.913087100197149
30
0
10
37.848195539505198
20
-17.940291132495837
30
0
10
42.471610019198593
20
-15.292598060968947
30
0
10
45.764057056404148
20
-12.711260758340245
30
0
10
47.881748612325701
20
-10.727560404399103
30
0
10
48.92127648699028
20
-9.6700093473685875
30
0
0
SPLINE
5
104
100
AcDbEntity
8
0
100
AcDbSpline
70
4
71
5
72
26
73
20
74
0
42
0.000000001
43
0.0000000001
44
0.0000000001
40
0
40
0
40
0
40
0
40
0
40
0
40
0.066666666666666666
40
0.13333333333333333
40
0.20000000000000001
40
0.26666666666666666
40
0.33333333333333331
40
0.39999999999999997
40
0.46666666666666662
40
0.53333333333333333
40
0.59999999999999998
40
0.66666666666666663
40
0.73333333333333328
40
0.79999999999999993
40
0.86666666666666659
40
0.93333333333333324
40
1
40
1
40
1
40
1
40
1
40
1
41
1
41
1
41
1
41
1
41
1
41
1
41
1
41
1
41
1
41
1
41
1
41
1
41
1
41
1
41
1
41
1
41
1
41
1
41
1
41
1
10
-50
20
20
30
0
10
-48.923000352968991
20
21.035602104499056
30
0
10
-46.732901447768228
20
22.97765581364807
30
0
10
-43.339452758234984
20
25.50327965859168
30
0
10
-38.596691970340295
20
28.090275727514204
30
0
10
-32.301079154212637
20
30.009829985459078
30
0
10
-25.644673482152939
20
30.636065655759666
30
0
10
-18.653468770499334
20
30.058152444592196
30
0
10
-11.386382685617566
20
28.480327004902875
30
0
10
-3.9434300180895443
20
26.250718093927436
30
0
10
3.553389086256777
20
23.7944320752792
30
0
10
10.973812399889271
20
21.565622691651662
30
0
10
18.195179651718657
20
19.992178494505996
30
0
10
25.115990452016487
20
19.428520869637346
30
0
10
31.675687869037237
20
20.086912899776227
30
0
10
37.848195539505198
20
22.059708867470427
30
0
10
42.471610019198593
20
24.707401939002082
30
0
10
45.764057056404148
20
27.288739241642087
30
0
10
47.881748612325701
20
29.272439595594399
30
0
10
48.92127648699028
20
30.329990652631412
30
0
0
SPLINE
5
105
100
AcDbEntity
8
0
100
AcDbSpline
70
4
71
5
72
26
73
20
74
0
42
0.000000001
43
0.0000000001
44
0.0000000001
40
0
40
0
40
0
40
0
40
0
40
0
40
0.066666666666666666
40
0.13333333333333333
40
0.20000000000000001
40
0.26666666666666666
40
0.33333333333333331
40
0.39999999999999997
40
0.46666666666666662
40
0.53333333333333333
40
0.59999999999999998
40
0.66666666666666663
40
0.73333333333333328
40
0.79999999999999993
40
0.86666666666666659
40
0.93333333333333324
40
1
40
1
40
1
40
1
40
1
40
1
41
1
41
1
41
1
41
1
41
1
41
1
41
1
41
1
41
1
41
1
41
1
41
1
41
1
41
1
41
1
41
1
41
1
41
1
41
1
41
1
10
-50
20
-40
30
0
10
-48.923000352968991
20
-38.964397895492532
30
0
10
-46.732901447768228
20
-37.022344186329107
30
0
10
-43.339452758234984
20
-34.496720341371194
30
0
10
-38.596691970340295
20
-31.909724272442791
30
0
10
-32.301079154212637
20
-29.99017001450634
30
0
10
-25.644673482152939
20
-29.363934344223676
30
0
10
-18.653468770499334
20
-29.941847555412309
30
0
10
-11.386382685617566
20
-31.51967299512048
30
0
10
-3.9434300180895443
20
-33.749281906107839
30
0
10
3.553389086256777
20
-36.205567924757787
30
0
10
10.973812399889271
20
-38.434377308375602
30
0
10
18.195179651718657
20
-40.007821505501454
30
0
10
25.115990452016487
20
-40.571479130344692
30
0
10
31.675687869037237
20
-39.91308710018243
30
0
10
37.848195539505198
20
-37.940291132476325
30
0
10
42.471610019198593
20
-35.292598060951789
30
0
10
45.764057056404148
20
-32.711260758329679
30
0
10
47.881748612325701
20
-30.727560404395206
30
0
10
48.92127648699028
20
-29.670009347368588
30
0
0
SPLINE
5
106
100
AcDbEntity
8
0
100
AcDbSpline
70
4
71
5
72
26
73
20
74
0
42
0.000000001
43
0.0000000001
44
0.0000000001
40
0
40
0
40
0
40
0
40
0
40
0
40
0.066666666666666666
40
0.13333333333333333
40
0.20000000000000001
40
0.26666666666666666
40
0.33333333333333331
40
0.39999999999999997
40
0.46666666666666662
40
0.53333333333333333
40
0.59999999999999998
40
0.66666666666666663
40
0.73333333333333328
40
0.79999999999999993
40
0.86666666666666659
40
0.93333333333333324
40
1
40
1
40
1
40
1
40
1
40
1
41
1
41
1
41
1
41
1
41
1
41
1
41
1
41
1
41
1
41
1
41
1
41
1
41
1
41
1
41
1
41
1
41
1
41
1
41
1
41
1
10
-50
20
40
30
0
10
-48.923000352968991
20
41.035602104491559
30
0
10
-46.732901447768228
20
42.977655813627734
30
0
10
-43.339452758234984
20
45.503279658558611
30
0
10
-38.596691970340295
20
48.090275727476083
30
0
10
-32.301079154212637
20
50.009829985429064
30
0
10
-25.644673482152939
20
50.636065655745853
30
0
10
-18.653468770499334
20
50.058152444596288
30
0
10
-11.386382685617566
20
48.48032700492125
30
0
10
-3.9434300180895443
20
46.250718093953431
30
0
10
3.553389086256777
20
43.794432075304854
30
0
10
10.973812399889271
20
41.565622691669461
30
0
10
18.195179651718657
20
39.99217849451037
30
0
10
25.115990452016487
20
39.428520869626155
30
0
10
31.675687869037237
20
40.086912899751795
30
0
10
37.848195539505198
20
42.059708867439987
30
0
10
42.471610019198593
20
44.707401938976254
30
0
10
45.764057056404148
20
47.288739241626459
30
0
10
47.881748612325701
20
49.272439595588665
30
0
10
48.92127648699028
20
50.329990652631409
30
0
0
SPLINE
5
107
100
AcDbEntity
8
0
100
AcDbSpline
70
4
71
5
72
26
73
20
74
0
42
0.000000001
43
0.0000000001
44
0.0000000001
40
0
40
0
40
0
40
0
40
0
40
0
40
0.066666666666666666
40
0.13333333333333333
40
0.20000000000000001
40
0.26666666666666666
40
0.33333333333333331
40
0.39999999999999997
40
0.46666666666666662
40
0.53333333333333333
40
0.59999999999999998
40
0.66666666666666663
40
0.73333333333333328
40
0.79999999999999993
40
0.86666666666666659
40
0.93333333333333324
40
1
40
1
40
1
40
1
40
1
40
1
41
1
41
1
41
1
41
1
41
1
41
1
41
1
41
1
41
1
41
1
41
1
41
1
41
1
41
1
41
1
41
1
41
1
41
1
41
1
41
1
10
-50
20
9.9999999999999982
30
0
10
-48.923000352968991
20
11.035602104500128
30
0
10
-46.732901447768228
20
12.977655813650975
30
0
10
-43.339452758234984
20
15.503279658596359
30
0
10
-38.596691970340295
20
18.0902757275196
30
0
10
-32.301079154212637
20
20.009829985463487
30
0
10
-25.644673482152939
20
20.63606565576189
30
0
10
-18.653468770499334
20
20.058152444591659
30
0
10
-11.386382685617566
20
18.480327004899568
30
0
10
-3.9434300180895443
20
16.250718093922121
30
0
10
3.553389086256777
20
13.794432075273315
30
0
10
10.973812399889271
20
11.565622691647103
30
0
10
18.195179651718657
20
9.9921784945046497
30
0
10
25.115990452016487
20
9.4285208696404581
30
0
10
31.675687869037237
20
10.086912899783645
30
0
10
37.848195539505198
20
12.05970886748017
30
0
10
42.471610019198593
20
14.707401939010623
30
0
10
45.764057056404148
20
17.288739241647349
30
0
10
47.881748612325701
20
19.272439595596342
30
0
10
48.92127648699028
20
20.329990652631412
30
0
0
SPLINE
5
108
100
AcDbEntity
8
0
100
AcDbSpline
70
4
71
5
72
26
73
20
74
0
42
0.000000001
43
0.0000000001
44
0.0000000001
40
0
40
0
40
0
40
0
40
0
40
0
40
0.066666666666666666
40
0.13333333333333333
40
0.20000000000000001
40
0.26666666666666666
40
0.33333333333333331
40
0.39999999999999997
40
0.46666666666666662
40
0.53333333333333333
40
0.59999999999999998
40
0.66666666666666663
40
0.73333333333333328
40
0.79999999999999993
40
0.86666666666666659
40
0.93333333333333324
40
1
40
1
40
1
40
1
40
1
40
1
41
1
41
1
41
1
41
1
41
1
41
1
41
1
41
1
41
1
41
1
41
1
41
1
41
1
41
1
41
1
41
1
41
1
41
1
41
1
41
1
10
-50
20
30
30
0
10
-48.923000352968991
20
31.035602104495673
30
0
10
-46.732901447768228
20
32.977655813638897
30
0
10
-43.339452758234984
20
35.50327965857683
30
0
10
-38.596691970340295
20
38.090275727497165
30
0
10
-32.301079154212637
20
40.009829985445727
30
0
10
-25.644673482152939
20
40.636065655753519
30
0
10
-18.653468770499334
20
40.058152444594
30
0
10
-11.386382685617566
20
38.480327004911075
30
0
10
-3.9434300180895443
20
36.250718093939163
30
0
10
3.553389086256777
20
33.794432075290885
30
0
10
10.973812399889271
20
31.565622691659854
30
0
10
18.195179651718657
20
29.99217849450805
30
0
10
25.115990452016487
20
29.428520869632138
30
0
10
31.675687869037237
20
30.086912899764776
30
0
10
37.848195539505198
20
32.059708867456095
30
0
10
42.471610019198593
20
34.707401938989875
30
0
10
45.764057056404148
20
37.288739241634687
30
0
10
47.881748612325701
20
39.272439595591692
30
0
10
48.92127648699028
20
40.329990652631409
30
0
0
SPLINE
5
109
100
AcDbEntity
8
0
100
AcDbSpline
70
4
71
5
72
26
73
20
74
0
42
0.000000001
43
0.0000000001
44
0.0000000001
40
0
40
0
40
0
40
0
40
0
40
0
40
0.066666666666666666
40
0.13333333333333333
40
0.20000000000000001
40
0.26666666666666666
40
0.33333333333333331
40
0.39999999999999997
40
0.46666666666666662
40
0.53333333333333333
40
0.59999999999999998
40
0.66666666666666663
40
0.73333333333333328
40
0.79999999999999993
40
0.86666666666666659
40
0.93333333333333324
40
1
40
1
40
1
40
1
40
1
40
1
41
1
41
1
41
1
41
1
41
1
41
1
41
1
41
1
41
1
41
1
41
1
41
1
41
1
41
1
41
1
41
1
41
1
41
1
41
1
41
1
10
-50
20
20
30
0
10
-48.923000352968991
20
21.035602104499056
30
0
10
-46.732901447768228
20
22.97765581364807
30
0
10
-43.339452758234984
20
25.50327965859168
30
0
10
-38.596691970340295
20
28.090275727514204
30
0
10
-32.301079154212637
20
30.009829985459078
30
0
10
-25.644673482152939
20
30.636065655759666
30
0
10
-18.653468770499334
20
30.058152444592196
30
0
10
-11.386382685617566
20
28.480327004902875
30
0
10
-3.9434300180895443
20
26.250718093927436
30
0
10
3.553389086256777
20
23.7944320752792
30
0
10
10.973812399889271
20
21.565622691651662
30
0
10
18.195179651718657
20
19.992178494505996
30
0
10
25.115990452016487
20
19.428520869637346
30
0
10
31.675687869037237
20
20.086912899776227
30
0
10
37.848195539505198
20
22.059708867470427
30
0
10
42.471610019198593
20
24.707401939002082
30
0
10
45.764057056404148
20
27.288739241642087
30
0
10
47.881748612325701
20
29.272439595594399
30
0
10
48.92127648699028
20
30.329990652631412
30
0
0
SPLINE
5
110
100
AcDbEntity
8
0
100
AcDbSpline
70
4
71
5
72
26
73
20
74
0
42
0.000000001
43
0.0000000001
44
0.0000000001
40
0
40
0
40
0
40
0
40
0
40
0
40
0.066666666666666666
40
0.13333333333333333
40
0.20000000000000001
40
0.26666666666666666
40
0.33333333333333331
40
0.39999999999999997
40
0.46666666666666662
40
0.53333333333333333
40
0.59999999999999998
40
0.66666666666666663
40
0.73333333333333328
40
0.79999999999999993
40
0.86666666666666659
40
0.93333333333333324
40
1
40
1
40
1
40
1
40
1
40
1
41
1
41
1
41
1
41
1
41
1
41
1
41
1
41
1
41
1
41
1
41
1
41
1
41
1
41
1
41
1
41
1
41
1
41
1
41
1
41
1
10
-50
20
-10
30
0
10
-48.923000352968991
20
-8.9643978954973011
30
0
10
-46.732901447768228
20
-7.0223441863420577
30
0
10
-43.339452758234984
20
-4.4967203413923267
30
0
10
-38.596691970340295
20
-1.9097242724673837
30
0
10
-32.301079154212637
20
0.009829985473829999
30
0
10
-25.644673482152939
20
0.63606565576675944
30
0
10
-18.653468770499334
20
0.058152444590284735
30
0
10
-11.386382685617566
20
-1.5196729951070918
30
0
10
-3.9434300180895443
20
-3.7492819060876661
30
0
10
3.553389086256777
20
-6.2055679247366751
30
0
10
10.973812399889271
20
-8.4343773083600482
30
0
10
18.195179651718657
20
-10.007821505497196
30
0
10
25.115990452016487
20
-10.571479130354946
30
0
10
31.675687869037237
20
-9.9130871002060523
30
0
10
37.848195539505198
20
-7.9402911325067542
30
0
10
42.471610019198593
20
-5.2925980609781442
30
0
10
45.764057056404148
20
-2.7112607583458059
30
0
10
47.881748612325701
20
-0.72756040440114023
30
0
10
48.92127648699028
20
0.32999065263141336
30
0
0
SPLINE
5
111
100
AcDbEntity
8
0
100
AcDbSpline
70
4
71
5
72
26
73
20
74
0
42
0.000000001
43
0.0000000001
44
0.0000000001
40
0
40
0
40
0
40
0
40
0
40
0
40
0.066666666666666666
40
0.13333333333333333
40
0.20000000000000001
40
0.26666666666666666
40
0.33333333333333331
40
0.39999999999999997
40
0.46666666666666662
40
0.53333333333333333
40
0.59999999999999998
40
0.66666666666666663
40
0.73333333333333328
40
0.79999999999999993
40
0.86666666666666659
40
0.93333333333333324
40
1
40
1
40
1
40
1
40
1
40
1
41
1
41
1
41
1
41
1
41
1
41
1
41
1
41
1
41
1
41
1
41
1
41
1
41
1
41
1
41
1
41
1
41
1
41
1
41
1
41
1
10
-50
20
-30
30
0
10
-48.923000352968991
20
-28.964397895496493
30
0
10
-46.732901447768228
20
-27.022344186339843
30
0
10
-43.339452758234984
20
-24.496720341388652
30
0
10
-38.596691970340295
20
-21.90972427246291
30
0
10
-32.301079154212637
20
-19.990170014522086
30
0
10
-25.644673482152939
20
-19.363934344230842
30
0
10
-18.653468770499334
20
-19.941847555410174
30
0
10
-11.386382685617566
20
-21.519672995111002
30
0
10
-3.9434300180895443
20
-23.749281906094524
30
0
10
3.553389086256777
20
-26.20556792474472
30
0
10
10.973812399889271
20
-28.434377308366564
30
0
10
18.195179651718657
20
-30.007821505499237
30
0
10
25.115990452016487
20
-30.571479130350362
30
0
10
31.675687869037237
20
-29.913087100194851
30
0
10
37.848195539505198
20
-27.940291132491843
30
0
10
42.471610019198593
20
-25.292598060964991
30
0
10
45.764057056404148
20
-22.711260758337684
30
0
10
47.881748612325701
20
-20.727560404398137
30
0
10
48.92127648699028
20
-19.670009347368588
30
0
0
SPLINE
5
112
100
AcDbEntity
8
0
100
AcDbSpline
70
4
71
5
72
26
73
20
74
0
42
0.000000001
43
0.0000000001
44
0.0000000001
40
0
40
0
40
0
40
0
40
0
40
0
40
0.066666666666666666
40
0.13333333333333333
40
0.20000000000000001
40
0.26666666666666666
40
0.33333333333333331
40
0.39999999999999997
40
0.46666666666666662
40
0.53333333333333333
40
0.59999999999999998
40
0.66666666666666663
40
0.73333333333333328
40
0.79999999999999993
40
0.86666666666666659
40
0.93333333333333324
40
1
40
1
40
1
40
1
40
1
40
1
41
1
41
1
41
1
41
1
41
1
41
1
41
1
41
1
41
1
41
1
41
1
41
1
41
1
41
1
41
1
41
1
41
1
41
1
41
1
41
1
10
-50
20
-50
30
0
10
-48.923000352968991
20
-48.964397895492468
30
0
10
-46.732901447768228
20
-47.022344186328866
30
0
10
-43.339452758234984
20
-44.496720341370704
30
0
10
-38.596691970340295
20
-41.90972427244202
30
0
10
-32.301079154212637
20
-39.990170014505352
30
0
10
-25.644673482152939
20
-39.363934344222898
30
0
10
-18.653468770499334
20
-39.941847555412387
30
0
10
-11.386382685617566
20
-41.519672995121965
30
0
10
-3.9434300180895443
20
-43.74928190611076
30
0
10
3.553389086256777
20
-46.205567924761439
30
0
10
10.973812399889271
20
-48.434377308378672
30
0
10
18.195179651718657
20
-50.007821505502477
30
0
10
25.115990452016487
20
-50.571479130342468
30
0
10
31.675687869037237
20
-49.913087100176902
30
0
10
37.848195539505198
20
-47.940291132468886
30
0
10
42.471610019198593
20
-45.292598060945188
30
0
10
45.764057056404148
20
-42.711260758325608
30
0
10
47.881748612325701
20
-40.727560404393692
30
0
10
48.92127648699028
20
-39.670009347368584
30
0
0
ENDSEC
0
SECTION
2
OBJECTS
0
DICTIONARY
5
C
100
AcDbDictionary
3
ACAD_GROUP
350
D
3
ACAD_MLINESTYLE
350
17
0
DICTIONARY
5
D
100
AcDbDictionary
0
DICTIONARY
5
1A
330
C
100
AcDbDictionary
0
DICTIONARY
5
17
100
AcDbDictionary
0
ENDSEC
0
EOF
